# Blender v3.0.1 OBJ File: ''
# www.blender.org
mtllib Key.mtl
o Key_Circle
v 0.000000 0.000000 -0.807385
v -0.039831 0.000000 -0.804879
v -0.079034 0.000000 -0.797401
v -0.116990 0.000000 -0.785068
v -0.153102 0.000000 -0.768075
v -0.186799 0.000000 -0.746691
v -0.217550 0.000000 -0.721251
v -0.244870 0.000000 -0.692158
v -0.268328 0.000000 -0.659871
v -0.287555 0.000000 -0.624897
v -0.302246 0.000000 -0.587790
v -0.312172 0.000000 -0.549134
v -0.317174 0.000000 -0.509539
v -0.317174 0.000000 -0.469630
v -0.312172 0.000000 -0.430035
v -0.302246 0.000000 -0.391379
v -0.287555 0.000000 -0.354271
v -0.268328 0.000000 -0.319298
v -0.244870 0.000000 -0.287011
v -0.217550 0.000000 -0.257918
v -0.186799 0.000000 -0.232478
v -0.153102 0.000000 -0.211094
v 0.153102 0.000000 -0.211094
v 0.186799 0.000000 -0.232478
v 0.217550 0.000000 -0.257918
v 0.244870 0.000000 -0.287011
v 0.268328 0.000000 -0.319298
v 0.287555 0.000000 -0.354271
v 0.302246 0.000000 -0.391379
v 0.312172 0.000000 -0.430035
v 0.317174 0.000000 -0.469630
v 0.317174 0.000000 -0.509539
v 0.312172 0.000000 -0.549134
v 0.302246 0.000000 -0.587790
v 0.287555 0.000000 -0.624897
v 0.268328 0.000000 -0.659871
v 0.244870 0.000000 -0.692158
v 0.217550 0.000000 -0.721251
v 0.186799 0.000000 -0.746691
v 0.153102 0.000000 -0.768075
v 0.116990 0.000000 -0.785068
v 0.079034 0.000000 -0.797401
v 0.039831 0.000000 -0.804879
v -0.149105 0.000000 -0.207311
v 0.149105 0.000000 -0.207311
v 0.000000 0.026909 -0.807385
v -0.039831 0.026909 -0.804879
v -0.079034 0.026909 -0.797401
v -0.116990 0.026909 -0.785068
v -0.153102 0.026909 -0.768075
v -0.186799 0.026909 -0.746691
v -0.217550 0.026909 -0.721251
v -0.244870 0.026909 -0.692158
v -0.268328 0.026909 -0.659871
v -0.287555 0.026909 -0.624897
v -0.302246 0.026909 -0.587790
v -0.312172 0.026909 -0.549134
v -0.317174 0.026909 -0.509539
v -0.317174 0.026909 -0.469630
v -0.312172 0.026909 -0.430035
v -0.302246 0.026909 -0.391379
v -0.287555 0.026909 -0.354271
v -0.268328 0.026909 -0.319298
v -0.244870 0.026909 -0.287011
v -0.217550 0.026909 -0.257918
v -0.186799 0.026909 -0.232478
v -0.153102 0.026909 -0.211094
v 0.153102 0.026909 -0.211094
v 0.186799 0.026909 -0.232478
v 0.217550 0.026909 -0.257918
v 0.244870 0.026909 -0.287011
v 0.268328 0.026909 -0.319298
v 0.287555 0.026909 -0.354271
v 0.302246 0.026909 -0.391379
v 0.312172 0.026909 -0.430035
v 0.317174 0.026909 -0.469630
v 0.317174 0.026909 -0.509539
v 0.312172 0.026909 -0.549134
v 0.302246 0.026909 -0.587790
v 0.287555 0.026909 -0.624897
v 0.268328 0.026909 -0.659871
v 0.244870 0.026909 -0.692158
v 0.217550 0.026909 -0.721251
v 0.186799 0.026909 -0.746691
v 0.153102 0.026909 -0.768075
v 0.116990 0.026909 -0.785068
v 0.079034 0.026909 -0.797401
v 0.039831 0.026909 -0.804879
v -0.149105 0.026909 -0.207311
v 0.149105 0.026909 -0.207311
v -0.057320 0.000000 0.760582
v -0.031146 0.000000 0.760353
v -0.051280 0.000000 0.764583
v -0.044185 0.000000 0.765944
v -0.037115 0.000000 0.764459
v -0.031146 0.026909 0.760353
v -0.057320 0.026909 0.760582
v -0.037115 0.026909 0.764459
v -0.044185 0.026909 0.765944
v -0.051280 0.026909 0.764583
v -0.149105 0.000000 0.658090
v -0.141039 0.000000 0.677464
v -0.146742 0.000000 0.668472
v -0.141039 0.026909 0.677464
v -0.149105 0.026909 0.658090
v -0.146742 0.026909 0.668472
v 0.080667 0.000000 0.645382
v 0.081962 0.000000 0.639808
v 0.082011 0.000000 0.642757
v 0.086691 0.000000 0.051500
v 0.090033 0.000000 0.048158
v 0.087670 0.000000 0.049137
v 0.094131 0.000000 0.121661
v 0.094514 0.000000 0.115287
v 0.094731 0.000000 0.118499
v 0.087486 0.000000 0.086592
v 0.086691 0.000000 0.080003
v 0.086924 0.000000 0.083317
v 0.080095 0.000000 0.165212
v 0.080072 0.000000 0.158966
v 0.079590 0.000000 0.162091
v 0.092959 0.000000 0.205521
v 0.093286 0.000000 0.199430
v 0.093688 0.000000 0.202506
v 0.057610 0.000000 0.280361
v 0.057440 0.000000 0.274511
v 0.056856 0.000000 0.277455
v 0.094675 0.000000 0.348084
v 0.094021 0.000000 0.342031
v 0.094916 0.000000 0.344996
v 0.084351 0.000000 0.385523
v 0.084453 0.000000 0.379141
v 0.083990 0.000000 0.382325
v 0.091514 0.000000 0.418646
v 0.092314 0.000000 0.412588
v 0.092470 0.000000 0.415690
v 0.048478 0.000000 0.494569
v 0.048625 0.000000 0.488781
v 0.047860 0.000000 0.491657
v 0.085396 0.000000 0.567928
v 0.085094 0.000000 0.561910
v 0.085844 0.000000 0.564889
v 0.071309 0.000000 0.607094
v 0.071569 0.000000 0.600835
v 0.070957 0.000000 0.603945
v 0.081962 0.026909 0.639808
v 0.080667 0.026909 0.645382
v 0.082011 0.026909 0.642757
v 0.090033 0.026909 0.048158
v 0.086691 0.026909 0.051500
v 0.087670 0.026909 0.049137
v 0.094514 0.026909 0.115287
v 0.094131 0.026909 0.121661
v 0.094731 0.026909 0.118499
v 0.086691 0.026909 0.080003
v 0.087486 0.026909 0.086592
v 0.086924 0.026909 0.083317
v 0.080072 0.026909 0.158966
v 0.080095 0.026909 0.165212
v 0.079590 0.026909 0.162091
v 0.093286 0.026909 0.199430
v 0.092959 0.026909 0.205521
v 0.093688 0.026909 0.202506
v 0.057440 0.026909 0.274511
v 0.057610 0.026909 0.280361
v 0.056856 0.026909 0.277455
v 0.094021 0.026909 0.342031
v 0.094675 0.026909 0.348084
v 0.094916 0.026909 0.344996
v 0.084453 0.026909 0.379141
v 0.084351 0.026909 0.385523
v 0.083990 0.026909 0.382325
v 0.092314 0.026909 0.412588
v 0.091514 0.026909 0.418646
v 0.092470 0.026909 0.415690
v 0.048625 0.026909 0.488781
v 0.048478 0.026909 0.494569
v 0.047860 0.026909 0.491657
v 0.085094 0.026909 0.561910
v 0.085396 0.026909 0.567928
v 0.085844 0.026909 0.564889
v 0.071569 0.026909 0.600835
v 0.071309 0.026909 0.607094
v 0.070957 0.026909 0.603945
v 0.144294 0.000000 0.048158
v 0.149105 0.000000 0.043347
v 0.146135 0.000000 0.047792
v 0.147696 0.000000 0.046749
v 0.148739 0.000000 0.045188
v 0.149105 0.026909 0.043347
v 0.144294 0.026909 0.048158
v 0.148739 0.026909 0.045188
v 0.147696 0.026909 0.046749
v 0.146135 0.026909 0.047792
v -0.000000 0.007106 -0.733420
v -0.000000 0.000000 -0.738808
v -0.012716 0.000000 -0.737939
v -0.010615 0.007106 -0.732753
v -0.025078 0.000000 -0.735376
v -0.021063 0.007106 -0.730760
v -0.036788 0.000000 -0.731238
v -0.031178 0.007106 -0.727473
v -0.047627 0.000000 -0.725687
v -0.040802 0.007106 -0.722944
v -0.057446 0.000000 -0.718892
v -0.049782 0.007106 -0.717245
v -0.066148 0.000000 -0.711018
v -0.057977 0.007106 -0.710466
v -0.073663 0.000000 -0.702218
v -0.065258 0.007106 -0.702712
v -0.079933 0.000000 -0.692642
v -0.071510 0.007106 -0.694108
v -0.084911 0.000000 -0.682437
v -0.076634 0.007106 -0.684787
v -0.088557 0.000000 -0.671752
v -0.080549 0.007106 -0.674898
v -0.090843 0.000000 -0.660739
v -0.083194 0.007106 -0.664596
v -0.091752 0.000000 -0.649556
v -0.084527 0.007106 -0.654044
v -0.091282 0.000000 -0.638363
v -0.084527 0.007106 -0.643408
v -0.089446 0.000000 -0.627319
v -0.083194 0.007106 -0.632856
v -0.086276 0.000000 -0.616583
v -0.080549 0.007106 -0.622554
v -0.081821 0.000000 -0.606311
v -0.076634 0.007106 -0.612665
v -0.076148 0.000000 -0.596651
v -0.071510 0.007106 -0.603344
v -0.069342 0.000000 -0.587743
v -0.065258 0.007106 -0.594740
v -0.061503 0.000000 -0.579717
v -0.057977 0.007106 -0.586986
v -0.052745 0.000000 -0.572686
v -0.049782 0.007106 -0.580207
v -0.043199 0.000000 -0.566751
v -0.040802 0.007106 -0.574508
v -0.040605 0.000000 -0.565570
v -0.031178 0.007106 -0.569979
v -0.022833 0.000000 -0.559796
v -0.021063 0.007106 -0.566692
v -0.011507 0.000000 -0.557636
v -0.010615 0.007106 -0.564699
v 0.000000 0.000000 -0.556912
v -0.000000 0.007106 -0.564031
v 0.011507 0.000000 -0.557636
v 0.010615 0.007106 -0.564699
v 0.022833 0.000000 -0.559796
v 0.021063 0.007106 -0.566692
v 0.040605 0.000000 -0.565570
v 0.031178 0.007106 -0.569979
v 0.043199 0.000000 -0.566751
v 0.040802 0.007106 -0.574508
v 0.052745 0.000000 -0.572686
v 0.049782 0.007106 -0.580207
v 0.061503 0.000000 -0.579717
v 0.057977 0.007106 -0.586986
v 0.069342 0.000000 -0.587743
v 0.065258 0.007106 -0.594740
v 0.076148 0.000000 -0.596651
v 0.071510 0.007106 -0.603344
v 0.081821 0.000000 -0.606310
v 0.076634 0.007106 -0.612665
v 0.086276 0.000000 -0.616583
v 0.080549 0.007106 -0.622554
v 0.089446 0.000000 -0.627319
v 0.083194 0.007106 -0.632856
v 0.091281 0.000000 -0.638363
v 0.084527 0.007106 -0.643408
v 0.091752 0.000000 -0.649556
v 0.084527 0.007106 -0.654044
v 0.090843 0.000000 -0.660739
v 0.083194 0.007106 -0.664596
v 0.088557 0.000000 -0.671752
v 0.080549 0.007106 -0.674898
v 0.084911 0.000000 -0.682437
v 0.076634 0.007106 -0.684787
v 0.079933 0.000000 -0.692642
v 0.071510 0.007106 -0.694108
v 0.073663 0.000000 -0.702218
v 0.065258 0.007106 -0.702712
v 0.066148 0.000000 -0.711018
v 0.057977 0.007106 -0.710466
v 0.057446 0.000000 -0.718892
v 0.049782 0.007106 -0.717245
v 0.047627 0.000000 -0.725687
v 0.040802 0.007106 -0.722944
v 0.036788 0.000000 -0.731238
v 0.031178 0.007106 -0.727473
v 0.025078 0.000000 -0.735376
v 0.021063 0.007106 -0.730760
v 0.012716 0.000000 -0.737939
v 0.010615 0.007106 -0.732753
v -0.000000 0.026909 -0.738808
v -0.000000 0.019803 -0.733420
v -0.010615 0.019803 -0.732753
v -0.012716 0.026909 -0.737939
v -0.021063 0.019803 -0.730760
v -0.025078 0.026909 -0.735376
v -0.031178 0.019803 -0.727473
v -0.036788 0.026909 -0.731238
v -0.040802 0.019803 -0.722944
v -0.047627 0.026909 -0.725687
v -0.049782 0.019803 -0.717245
v -0.057446 0.026909 -0.718892
v -0.057977 0.019803 -0.710466
v -0.066148 0.026909 -0.711018
v -0.065258 0.019803 -0.702712
v -0.073663 0.026909 -0.702218
v -0.071510 0.019803 -0.694108
v -0.079933 0.026909 -0.692642
v -0.076634 0.019803 -0.684787
v -0.084911 0.026909 -0.682437
v -0.080549 0.019803 -0.674898
v -0.088557 0.026909 -0.671752
v -0.083194 0.019803 -0.664596
v -0.090843 0.026909 -0.660739
v -0.084527 0.019803 -0.654044
v -0.091752 0.026909 -0.649556
v -0.084527 0.019803 -0.643408
v -0.091282 0.026909 -0.638363
v -0.083194 0.019803 -0.632856
v -0.089446 0.026909 -0.627319
v -0.080549 0.019803 -0.622554
v -0.086276 0.026909 -0.616583
v -0.076634 0.019803 -0.612665
v -0.081821 0.026909 -0.606311
v -0.071510 0.019803 -0.603344
v -0.076148 0.026909 -0.596651
v -0.065258 0.019803 -0.594740
v -0.069342 0.026909 -0.587743
v -0.057977 0.019803 -0.586986
v -0.061503 0.026909 -0.579717
v -0.049782 0.019803 -0.580207
v -0.052745 0.026909 -0.572686
v -0.040802 0.019803 -0.574508
v -0.043199 0.026909 -0.566751
v -0.031178 0.019803 -0.569979
v -0.040605 0.026909 -0.565570
v -0.021063 0.019803 -0.566692
v -0.022833 0.026909 -0.559796
v -0.010615 0.019803 -0.564699
v -0.011507 0.026909 -0.557636
v -0.000000 0.019803 -0.564031
v 0.000000 0.026909 -0.556912
v 0.010615 0.019803 -0.564699
v 0.011507 0.026909 -0.557636
v 0.021063 0.019803 -0.566692
v 0.022833 0.026909 -0.559796
v 0.031178 0.019803 -0.569979
v 0.040605 0.026909 -0.565570
v 0.040802 0.019803 -0.574508
v 0.043199 0.026909 -0.566751
v 0.049782 0.019803 -0.580207
v 0.052745 0.026909 -0.572686
v 0.057977 0.019803 -0.586986
v 0.061503 0.026909 -0.579717
v 0.065258 0.019803 -0.594740
v 0.069342 0.026909 -0.587743
v 0.071510 0.019803 -0.603344
v 0.076148 0.026909 -0.596651
v 0.076634 0.019803 -0.612665
v 0.081821 0.026909 -0.606310
v 0.080549 0.019803 -0.622554
v 0.086276 0.026909 -0.616583
v 0.083194 0.019803 -0.632856
v 0.089446 0.026909 -0.627319
v 0.084527 0.019803 -0.643408
v 0.091281 0.026909 -0.638363
v 0.084527 0.019803 -0.654044
v 0.091752 0.026909 -0.649556
v 0.083194 0.019803 -0.664596
v 0.090843 0.026909 -0.660739
v 0.080549 0.019803 -0.674898
v 0.088557 0.026909 -0.671752
v 0.076634 0.019803 -0.684787
v 0.084911 0.026909 -0.682437
v 0.071510 0.019803 -0.694108
v 0.079933 0.026909 -0.692642
v 0.065258 0.019803 -0.702712
v 0.073663 0.026909 -0.702218
v 0.057977 0.019803 -0.710466
v 0.066148 0.026909 -0.711018
v 0.049782 0.019803 -0.717245
v 0.057446 0.026909 -0.718892
v 0.040802 0.019803 -0.722944
v 0.047627 0.026909 -0.725687
v 0.031178 0.019803 -0.727473
v 0.036788 0.026909 -0.731238
v 0.021063 0.019803 -0.730760
v 0.025078 0.026909 -0.735376
v 0.010615 0.019803 -0.732753
v 0.012716 0.026909 -0.737939
vt 0.854181 0.651916
vt 0.862355 0.651916
vt 0.862355 0.646062
vt 0.854181 0.646062
vt 0.858755 0.161581
vt 0.866929 0.161581
vt 0.866929 0.155979
vt 0.858755 0.155979
vt 0.858755 0.256261
vt 0.866929 0.256261
vt 0.866929 0.249506
vt 0.858755 0.249506
vt 0.854181 0.566537
vt 0.862355 0.566537
vt 0.862355 0.560998
vt 0.854181 0.560998
vt 0.862355 0.640700
vt 0.854181 0.640700
vt 0.866929 0.150915
vt 0.858755 0.150915
vt 0.866929 0.242944
vt 0.858755 0.242944
vt 0.862355 0.556007
vt 0.854181 0.556007
vt 0.862355 0.635913
vt 0.854181 0.635913
vt 0.858755 0.304612
vt 0.866929 0.304612
vt 0.866929 0.300049
vt 0.858755 0.300049
vt 0.866929 0.236680
vt 0.858755 0.236680
vt 0.858755 0.230390
vt 0.866929 0.230390
vt 0.866929 0.225474
vt 0.858755 0.225474
vt 0.609142 0.999790
vt 0.598266 0.954588
vt 0.590088 0.953928
vt 0.583546 0.997585
vt 0.866929 0.230811
vt 0.858755 0.230811
vt 0.866929 0.219999
vt 0.858755 0.219999
vt 0.199898 0.000210
vt 0.174303 0.002415
vt 0.180845 0.046072
vt 0.189023 0.045412
vt 0.854181 0.710140
vt 0.862355 0.710140
vt 0.862355 0.704435
vt 0.854181 0.704435
vt 0.866929 0.214052
vt 0.858755 0.214052
vt 0.862355 0.698301
vt 0.854181 0.698301
vt 0.866929 0.207727
vt 0.858755 0.207727
vt 0.862355 0.691833
vt 0.854181 0.691833
vt 0.866929 0.201123
vt 0.858755 0.201123
vt 0.862355 0.685135
vt 0.854181 0.685135
vt 0.866929 0.194345
vt 0.858755 0.194345
vt 0.862355 0.678312
vt 0.854181 0.678312
vt 0.866929 0.187499
vt 0.858755 0.187499
vt 0.866929 0.294882
vt 0.858755 0.294882
vt 0.862355 0.671472
vt 0.854181 0.671472
vt 0.866929 0.180694
vt 0.858755 0.180694
vt 0.858755 0.283072
vt 0.866929 0.283072
vt 0.866929 0.276614
vt 0.858755 0.276614
vt 0.862355 0.664722
vt 0.854181 0.664722
vt 0.866929 0.174036
vt 0.858755 0.174036
vt 0.866929 0.269923
vt 0.858755 0.269923
vt 0.854181 0.585534
vt 0.862355 0.585534
vt 0.862355 0.578902
vt 0.854181 0.578902
vt 0.862355 0.658169
vt 0.854181 0.658169
vt 0.866929 0.167631
vt 0.858755 0.167631
vt 0.866929 0.263102
vt 0.858755 0.263102
vt 0.862355 0.572537
vt 0.854181 0.572537
vt 0.854181 0.635492
vt 0.862355 0.635492
vt 0.862355 0.630501
vt 0.854181 0.630501
vt 0.757310 0.649417
vt 0.639515 0.853207
vt 0.644419 0.858518
vt 0.774459 0.668546
vt 0.511198 0.972217
vt 0.567391 0.945600
vt 0.561021 0.941032
vt 0.489831 0.957954
vt 0.750424 0.947592
vt 0.640473 0.937663
vt 0.634850 0.942548
vt 0.730257 0.963506
vt 0.443715 0.681697
vt 0.550641 0.861774
vt 0.555174 0.856166
vt 0.459291 0.661267
vt 0.737899 0.632589
vt 0.634003 0.848517
vt 0.534185 0.983689
vt 0.574451 0.949351
vt 0.768438 0.929275
vt 0.645378 0.932165
vt 0.430822 0.703918
vt 0.546825 0.867888
vt 0.735715 0.629799
vt 0.545873 0.601349
vt 0.542968 0.603376
vt 0.579002 0.840275
vt 0.580766 0.839771
vt 0.592631 0.837790
vt 0.600047 0.837495
vt 0.607442 0.838132
vt 0.614698 0.839691
vt 0.621702 0.842147
vt 0.632465 0.847518
vt 0.558428 0.992190
vt 0.582076 0.952162
vt 0.784015 0.908846
vt 0.649521 0.926143
vt 0.420816 0.727580
vt 0.543783 0.874420
vt 0.796908 0.886625
vt 0.652862 0.919688
vt 0.413854 0.752309
vt 0.541561 0.881276
vt 0.634812 0.998769
vt 0.606381 0.954136
vt 0.806914 0.862963
vt 0.655368 0.912896
vt 0.410047 0.777716
vt 0.540193 0.888357
vt 0.813876 0.838234
vt 0.657013 0.905864
vt 0.409453 0.803399
vt 0.539705 0.895563
vt 0.817683 0.812827
vt 0.657781 0.898693
vt 0.412084 0.828955
vt 0.540110 0.902791
vt 0.818276 0.787143
vt 0.657666 0.891487
vt 0.417897 0.853979
vt 0.541412 0.909942
vt 0.815646 0.761588
vt 0.656672 0.884350
vt 0.426800 0.878077
vt 0.543607 0.916913
vt 0.809833 0.736564
vt 0.654816 0.877386
vt 0.438653 0.900870
vt 0.546685 0.923608
vt 0.660152 0.994539
vt 0.614230 0.952619
vt 0.800930 0.712465
vt 0.652127 0.870695
vt 0.453270 0.921997
vt 0.550629 0.929926
vt 0.684762 0.987166
vt 0.621659 0.950119
vt 0.497473 0.627036
vt 0.566113 0.846783
vt 0.572359 0.843143
vt 0.519476 0.613775
vt 0.789076 0.689673
vt 0.648644 0.864375
vt 0.470419 0.941126
vt 0.555418 0.935769
vt 0.708253 0.976767
vt 0.628559 0.946730
vt 0.477305 0.642951
vt 0.560357 0.851144
vt 0.021579 0.296082
vt 0.034472 0.318303
vt 0.141398 0.138226
vt 0.137582 0.132112
vt 0.854181 0.128471
vt 0.871503 0.128471
vt 0.871503 0.104964
vt 0.854181 0.104964
vt 0.011573 0.272420
vt 0.134540 0.125580
vt 0.854181 0.150494
vt 0.871503 0.150494
vt 0.004611 0.247691
vt 0.132318 0.118724
vt 0.836439 0.320293
vt 0.853761 0.320293
vt 0.853761 0.298885
vt 0.836439 0.298885
vt 0.000803 0.222284
vt 0.130950 0.111643
vt 0.836439 0.343312
vt 0.853761 0.343312
vt 0.000210 0.196601
vt 0.130462 0.104437
vt 0.836439 0.367579
vt 0.853761 0.367579
vt 0.002841 0.171045
vt 0.130867 0.097209
vt 0.836439 0.392712
vt 0.853761 0.392712
vt 0.008654 0.146021
vt 0.132168 0.090058
vt 0.836439 0.418313
vt 0.853761 0.418313
vt 0.017557 0.121923
vt 0.134364 0.083087
vt 0.836439 0.443981
vt 0.853761 0.443981
vt 0.818697 0.832254
vt 0.836018 0.832254
vt 0.836018 0.759076
vt 0.818697 0.759076
vt 0.029410 0.099130
vt 0.137442 0.076392
vt 0.836439 0.469308
vt 0.853761 0.469308
vt 0.818697 0.745671
vt 0.836018 0.745671
vt 0.836018 0.261796
vt 0.818697 0.261796
vt 0.044027 0.078003
vt 0.141386 0.070074
vt 0.836439 0.493897
vt 0.853761 0.493897
vt 0.818697 0.867599
vt 0.836018 0.867599
vt 0.836018 0.839854
vt 0.818697 0.839854
vt 0.061176 0.058874
vt 0.146175 0.064230
vt 0.836439 0.517360
vt 0.853761 0.517360
vt 0.080588 0.042046
vt 0.151778 0.058968
vt 0.836439 0.539326
vt 0.853761 0.539326
vt 0.854181 0.003733
vt 0.871503 0.003733
vt 0.871503 0.000210
vt 0.854181 0.000210
vt 0.101955 0.027783
vt 0.158148 0.054400
vt 0.836439 0.559448
vt 0.853761 0.559448
vt 0.871503 0.511353
vt 0.854181 0.511353
vt 0.854181 0.528684
vt 0.871503 0.528684
vt 0.124942 0.016311
vt 0.165208 0.050649
vt 0.836439 0.577411
vt 0.853761 0.577411
vt 0.836439 0.869698
vt 0.853761 0.869698
vt 0.853761 0.847921
vt 0.836439 0.847921
vt 0.149185 0.007810
vt 0.172833 0.047838
vt 0.836439 0.018938
vt 0.853761 0.018938
vt 0.853761 0.000210
vt 0.836439 0.000210
vt 0.836018 0.258406
vt 0.818697 0.258406
vt 0.858755 0.289193
vt 0.866929 0.289193
vt 0.836439 0.039722
vt 0.853761 0.039722
vt 0.836439 0.062235
vt 0.853761 0.062235
vt 0.871503 0.532859
vt 0.854181 0.532859
vt 0.854181 0.551792
vt 0.871503 0.551792
vt 0.871503 0.714364
vt 0.854181 0.714364
vt 0.854181 0.737957
vt 0.871503 0.737957
vt 0.225569 0.001231
vt 0.197137 0.045864
vt 0.871503 0.465793
vt 0.854181 0.465793
vt 0.854181 0.510933
vt 0.871503 0.510933
vt 0.250908 0.005461
vt 0.204987 0.047381
vt 0.871503 0.364940
vt 0.854181 0.364940
vt 0.854181 0.410132
vt 0.871503 0.410132
vt 0.275518 0.012834
vt 0.212416 0.049881
vt 0.871503 0.814826
vt 0.854181 0.814826
vt 0.854181 0.832198
vt 0.871503 0.832198
vt 0.299010 0.023232
vt 0.219316 0.053270
vt 0.871503 0.773988
vt 0.854181 0.773988
vt 0.854181 0.792128
vt 0.871503 0.792128
vt 0.321013 0.036494
vt 0.225607 0.057452
vt 0.871503 0.416016
vt 0.854181 0.416016
vt 0.854181 0.465372
vt 0.871503 0.465372
vt 0.341181 0.052408
vt 0.231230 0.062337
vt 0.854181 0.357439
vt 0.871503 0.357439
vt 0.871503 0.308755
vt 0.854181 0.308755
vt 0.359195 0.070724
vt 0.236135 0.067835
vt 0.871503 0.794468
vt 0.854181 0.794468
vt 0.854181 0.814406
vt 0.871503 0.814406
vt 0.374771 0.091154
vt 0.240278 0.073857
vt 0.387664 0.113375
vt 0.243618 0.080312
vt 0.853761 0.733420
vt 0.836439 0.733420
vt 0.836439 0.835552
vt 0.853761 0.835552
vt 0.836439 0.086121
vt 0.853761 0.086121
vt 0.397671 0.137037
vt 0.246124 0.087104
vt 0.836439 0.111004
vt 0.853761 0.111004
vt 0.404632 0.161766
vt 0.247770 0.094136
vt 0.836439 0.136492
vt 0.853761 0.136492
vt 0.408440 0.187173
vt 0.248538 0.101307
vt 0.836439 0.162183
vt 0.853761 0.162183
vt 0.409033 0.212857
vt 0.248423 0.108513
vt 0.836439 0.187671
vt 0.853761 0.187671
vt 0.406402 0.238412
vt 0.247429 0.115650
vt 0.836439 0.212554
vt 0.853761 0.212554
vt 0.400590 0.263436
vt 0.245573 0.122614
vt 0.836439 0.236440
vt 0.853761 0.236440
vt 0.391686 0.287535
vt 0.242884 0.129305
vt 0.836439 0.258953
vt 0.853761 0.258953
vt 0.379833 0.310327
vt 0.239400 0.135625
vt 0.836439 0.279737
vt 0.853761 0.279737
vt 0.365216 0.331454
vt 0.235176 0.141482
vt 0.836439 0.298465
vt 0.853761 0.298465
vt 0.348067 0.350583
vt 0.230271 0.146793
vt 0.818697 0.018658
vt 0.836018 0.018658
vt 0.836018 0.000210
vt 0.818697 0.000210
vt 0.328656 0.367411
vt 0.224760 0.151483
vt 0.818697 0.039202
vt 0.836018 0.039202
vt 0.223222 0.152482
vt 0.212459 0.157853
vt 0.205455 0.160309
vt 0.198198 0.161868
vt 0.190804 0.162505
vt 0.183388 0.162210
vt 0.171523 0.160229
vt 0.169759 0.159725
vt 0.133725 0.396624
vt 0.136630 0.398651
vt 0.326472 0.370201
vt 0.818697 0.061517
vt 0.836018 0.061517
vt 0.862355 0.624962
vt 0.854181 0.624962
vt 0.818697 0.085251
vt 0.836018 0.085251
vt 0.862355 0.618963
vt 0.854181 0.618963
vt 0.818697 0.110031
vt 0.836018 0.110031
vt 0.862355 0.612597
vt 0.854181 0.612597
vt 0.818697 0.135465
vt 0.836018 0.135465
vt 0.862355 0.605965
vt 0.854181 0.605965
vt 0.818697 0.161152
vt 0.836018 0.161152
vt 0.862355 0.599173
vt 0.854181 0.599173
vt 0.818697 0.186688
vt 0.836018 0.186688
vt 0.862355 0.592326
vt 0.854181 0.592326
vt 0.818697 0.211668
vt 0.836018 0.211668
vt 0.818697 0.235701
vt 0.836018 0.235701
vt 0.110233 0.386225
vt 0.163116 0.156857
vt 0.088230 0.372964
vt 0.156870 0.153217
vt 0.854181 0.029326
vt 0.871503 0.029326
vt 0.068062 0.357049
vt 0.151114 0.148856
vt 0.854181 0.054997
vt 0.871503 0.054997
vt 0.050048 0.338733
vt 0.145931 0.143834
vt 0.854181 0.080343
vt 0.871503 0.080343
vt 0.818697 0.836417
vt 0.836018 0.836417
vt 0.853761 0.847501
vt 0.853761 0.844405
vt 0.836439 0.844405
vt 0.836439 0.847501
vt 0.853761 0.840210
vt 0.836439 0.840210
vt 0.818276 0.078880
vt 0.817763 0.072046
vt 0.814990 0.065778
vt 0.769623 0.004877
vt 0.766160 0.001754
vt 0.761773 0.000210
vt 0.757131 0.000481
vt 0.752939 0.002526
vt 0.670790 0.065050
vt 0.669683 0.066593
vt 0.669433 0.068475
vt 0.673094 0.090317
vt 0.673018 0.092355
vt 0.672332 0.094277
vt 0.660390 0.113906
vt 0.659815 0.115798
vt 0.660008 0.117766
vt 0.676894 0.164129
vt 0.677010 0.166042
vt 0.676248 0.167800
vt 0.642254 0.208356
vt 0.641363 0.210147
vt 0.641166 0.212137
vt 0.643653 0.230126
vt 0.643578 0.232196
vt 0.642980 0.234179
vt 0.633510 0.252975
vt 0.633061 0.254918
vt 0.633349 0.256891
vt 0.650645 0.299624
vt 0.650847 0.301546
vt 0.650194 0.303364
vt 0.621001 0.343895
vt 0.620249 0.345745
vt 0.620212 0.347741
vt 0.625345 0.370783
vt 0.625368 0.372818
vt 0.624764 0.374762
vt 0.612255 0.397169
vt 0.611571 0.399125
vt 0.611402 0.401190
vt 0.613139 0.420128
vt 0.613185 0.422266
vt 0.613017 0.424398
vt 0.610298 0.442543
vt 0.609449 0.443955
vt 0.607851 0.444352
vt 0.573308 0.439176
vt 0.572101 0.439233
vt 0.571008 0.439748
vt 0.570195 0.440642
vt 0.569787 0.441779
vt 0.836018 0.752230
vt 0.818697 0.752230
vt 0.854181 0.765957
vt 0.871503 0.765957
vt 0.871503 0.743815
vt 0.854181 0.743815
vt 0.871503 0.742012
vt 0.854181 0.742012
vt 0.836439 0.731706
vt 0.853761 0.731706
vt 0.818697 0.836838
vt 0.818697 0.838263
vt 0.836018 0.838263
vt 0.836018 0.836838
vt 0.871503 0.530749
vt 0.854181 0.530749
vt 0.871503 0.712359
vt 0.854181 0.712359
vt 0.871503 0.710561
vt 0.854181 0.710561
vt 0.854181 0.553790
vt 0.871503 0.553790
vt 0.854181 0.555586
vt 0.871503 0.555586
vt 0.871503 0.741591
vt 0.871503 0.739912
vt 0.854181 0.739912
vt 0.854181 0.741591
vt 0.871503 0.363014
vt 0.854181 0.363014
vt 0.871503 0.361347
vt 0.854181 0.361347
vt 0.871503 0.413951
vt 0.871503 0.412124
vt 0.854181 0.412124
vt 0.854181 0.413951
vt 0.871503 0.771968
vt 0.854181 0.771968
vt 0.871503 0.770129
vt 0.854181 0.770129
vt 0.871503 0.414372
vt 0.854181 0.414371
vt 0.871503 0.794047
vt 0.854181 0.794047
vt 0.854181 0.359340
vt 0.871503 0.359340
vt 0.854181 0.360927
vt 0.871503 0.360927
vt 0.854181 0.305032
vt 0.854181 0.306785
vt 0.871503 0.306785
vt 0.871503 0.305032
vt 0.854181 0.767947
vt 0.871503 0.767947
vt 0.854181 0.769709
vt 0.871503 0.769709
vt 0.836439 0.731286
vt 0.853761 0.731286
vt 0.853761 0.578873
vt 0.836439 0.578873
vt 0.818697 0.868683
vt 0.836018 0.868683
vt 0.818697 0.869889
vt 0.836018 0.869889
vt 0.818697 0.871033
vt 0.836018 0.871033
vt 0.836439 0.577831
vt 0.853761 0.577831
vt 0.160544 0.558221
vt 0.160952 0.559358
vt 0.161765 0.560252
vt 0.162858 0.560767
vt 0.164065 0.560824
vt 0.198608 0.555648
vt 0.200206 0.556045
vt 0.201054 0.557457
vt 0.203773 0.575602
vt 0.203941 0.577734
vt 0.203896 0.579872
vt 0.202159 0.598810
vt 0.202327 0.600875
vt 0.203012 0.602831
vt 0.215520 0.625238
vt 0.216125 0.627182
vt 0.216101 0.629217
vt 0.210968 0.652259
vt 0.211006 0.654255
vt 0.211758 0.656105
vt 0.240951 0.696636
vt 0.241604 0.698454
vt 0.241401 0.700376
vt 0.224105 0.743109
vt 0.223818 0.745082
vt 0.224266 0.747025
vt 0.233737 0.765821
vt 0.234335 0.767804
vt 0.234410 0.769874
vt 0.231923 0.787863
vt 0.232120 0.789853
vt 0.233011 0.791644
vt 0.267005 0.832200
vt 0.267766 0.833958
vt 0.267651 0.835871
vt 0.250765 0.882234
vt 0.250572 0.884202
vt 0.251147 0.886094
vt 0.263088 0.905723
vt 0.263775 0.907645
vt 0.263851 0.909683
vt 0.260190 0.931525
vt 0.260440 0.933407
vt 0.261547 0.934950
vt 0.343696 0.997474
vt 0.347887 0.999519
vt 0.352530 0.999790
vt 0.356917 0.998246
vt 0.360380 0.995123
vt 0.405747 0.934222
vt 0.408520 0.927954
vt 0.409033 0.921120
vt 0.854181 0.290147
vt 0.854181 0.296989
vt 0.854181 0.282824
vt 0.854181 0.275218
vt 0.854181 0.267506
vt 0.854181 0.259828
vt 0.854181 0.252299
vt 0.854181 0.245015
vt 0.854181 0.238065
vt 0.234784 0.073151
vt 0.230633 0.067706
vt 0.238220 0.079072
vt 0.240887 0.085378
vt 0.242742 0.091969
vt 0.243757 0.098740
vt 0.243915 0.105585
vt 0.243214 0.112395
vt 0.241665 0.119064
vt 0.239292 0.125486
vt 0.236133 0.131560
vt 0.232238 0.137191
vt 0.227668 0.142289
vt 0.222494 0.146774
vt 0.216800 0.150575
vt 0.210674 0.153632
vt 0.204213 0.155897
vt 0.197519 0.157335
vt 0.190698 0.157923
vt 0.183857 0.157651
vt 0.177104 0.156523
vt 0.170545 0.154559
vt 0.164284 0.151787
vt 0.158421 0.148253
vt 0.153046 0.144012
vt 0.148245 0.139131
vt 0.144094 0.133686
vt 0.140658 0.127764
vt 0.137991 0.121458
vt 0.136136 0.114868
vt 0.135121 0.108097
vt 0.134963 0.101252
vt 0.135664 0.094442
vt 0.854181 0.198299
vt 0.854181 0.205436
vt 0.854181 0.191005
vt 0.854181 0.183650
vt 0.854181 0.176334
vt 0.854181 0.169155
vt 0.854181 0.162224
vt 0.854181 0.155663
vt 0.168204 0.053205
vt 0.162078 0.056262
vt 0.174665 0.050939
vt 0.854181 0.303151
vt 0.871503 0.290147
vt 0.871503 0.296989
vt 0.871503 0.282824
vt 0.871503 0.275218
vt 0.871503 0.267506
vt 0.871503 0.259828
vt 0.871503 0.252299
vt 0.871503 0.245015
vt 0.871503 0.238065
vt 0.644028 0.926849
vt 0.639877 0.932294
vt 0.647464 0.920927
vt 0.650130 0.914622
vt 0.651986 0.908031
vt 0.653000 0.901260
vt 0.653158 0.894415
vt 0.652457 0.887605
vt 0.650908 0.880936
vt 0.648535 0.874514
vt 0.645377 0.868439
vt 0.641481 0.862809
vt 0.636911 0.857711
vt 0.631738 0.853226
vt 0.626043 0.849425
vt 0.619917 0.846368
vt 0.613456 0.844103
vt 0.606762 0.842665
vt 0.599941 0.842077
vt 0.593100 0.842349
vt 0.586347 0.843476
vt 0.579788 0.845441
vt 0.573528 0.848213
vt 0.567664 0.851747
vt 0.562289 0.855988
vt 0.557488 0.860869
vt 0.553337 0.866314
vt 0.549901 0.872236
vt 0.547234 0.878542
vt 0.545379 0.885132
vt 0.544364 0.891903
vt 0.544206 0.898748
vt 0.544907 0.905558
vt 0.871503 0.198299
vt 0.871503 0.205436
vt 0.871503 0.191005
vt 0.871503 0.183650
vt 0.871503 0.176334
vt 0.871503 0.169155
vt 0.871503 0.162224
vt 0.871503 0.155663
vt 0.577448 0.946795
vt 0.571322 0.943738
vt 0.583908 0.949061
vt 0.871503 0.303151
vn 0.6845 0.0000 -0.7290
vn 0.5878 0.0000 -0.8090
vn -0.4818 0.0000 0.8763
vn -0.3681 0.0000 0.9298
vn 0.6845 0.0000 0.7290
vn 0.7705 0.0000 0.6374
vn -0.8443 0.0000 -0.5358
vn -0.9048 0.0000 -0.4258
vn 0.4818 0.0000 -0.8763
vn -0.2487 0.0000 0.9686
vn 0.8443 0.0000 0.5358
vn -0.9511 0.0000 -0.3090
vn 0.3681 0.0000 -0.9298
vn -0.1253 0.0000 0.9921
vn 0.9048 0.0000 0.4258
vn -0.9823 0.0000 -0.1874
vn 0.0000 1.0000 0.0000
vn 0.9511 0.0000 0.3090
vn -0.9980 0.0000 -0.0628
vn 0.0000 -1.0000 0.0000
vn 0.9823 0.0000 0.1874
vn -0.9980 0.0000 0.0628
vn 0.9980 0.0000 0.0628
vn -0.9823 0.0000 0.1874
vn 0.9980 0.0000 -0.0628
vn -0.9511 0.0000 0.3090
vn 0.9823 0.0000 -0.1874
vn -0.9048 0.0000 0.4258
vn 0.9511 0.0000 -0.3090
vn -0.8443 0.0000 0.5358
vn -0.0000 0.0000 1.0000
vn 0.9048 0.0000 -0.4258
vn -0.7705 0.0000 0.6374
vn 0.2487 0.0000 0.9686
vn 0.3681 0.0000 0.9298
vn 0.8443 0.0000 -0.5358
vn -0.6845 0.0000 0.7290
vn 0.4818 0.0000 0.8763
vn -0.5878 0.0000 -0.8090
vn -0.6845 0.0000 -0.7290
vn 0.7705 0.0000 -0.6374
vn -0.5878 0.0000 0.8090
vn 0.5878 0.0000 0.8090
vn -0.7705 0.0000 -0.6374
vn 0.2487 0.0000 -0.9686
vn -0.6315 0.0000 0.7754
vn -0.7794 0.0000 0.6266
vn -0.9937 0.0000 0.1116
vn -1.0000 0.0000 0.0000
vn 0.0980 0.0000 0.9952
vn 0.1951 0.0000 0.9808
vn 0.6145 0.0000 0.7890
vn 0.6874 0.0000 0.7263
vn 0.9808 0.0000 0.1951
vn 0.9994 -0.0000 -0.0351
vn 0.9627 -0.0000 0.2706
vn 0.9673 -0.0000 0.2538
vn -0.6874 0.0000 0.7263
vn -0.6144 0.0000 0.7890
vn 0.1253 0.0000 0.9921
vn 0.1253 0.0000 -0.9921
vn 0.0000 0.0000 -1.0000
vn 0.9790 -0.0000 -0.2037
vn 0.9882 -0.0000 -0.1532
vn 0.9653 0.0000 -0.2611
vn 0.9692 -0.0000 -0.2464
vn 0.9371 0.0000 0.3490
vn 0.9442 0.0000 0.3294
vn 0.9236 0.0000 -0.3835
vn 0.9158 0.0000 -0.4017
vn 0.9805 0.0000 0.1967
vn 0.9734 0.0000 0.2291
vn 0.9802 -0.0000 -0.1980
vn 0.9859 -0.0000 -0.1675
vn 0.9086 -0.0000 0.4177
vn 0.9193 -0.0000 0.3935
vn 0.9381 -0.0000 -0.3463
vn 0.9315 0.0000 -0.3638
vn 0.9632 0.0000 0.2687
vn 0.9565 -0.0000 0.2918
vn 0.8125 -0.0000 0.5830
vn 0.6450 -0.0000 0.7642
vn -0.1253 0.0000 -0.9921
vn -0.2487 0.0000 -0.9686
vn -0.3681 0.0000 -0.9298
vn -0.4818 0.0000 -0.8763
vn -0.3777 0.0000 0.9259
vn 0.0088 0.0000 1.0000
vn 0.3939 -0.0000 0.9192
vn -0.9232 0.0000 0.3843
vn 0.9774 -0.0000 -0.2115
vn 0.9863 -0.0000 -0.1650
vn 0.9740 -0.0000 0.2264
vn 0.9239 0.0000 0.3827
vn 0.3827 0.0000 0.9239
vn 0.9928 -0.0000 -0.1198
vn 1.0000 0.0000 -0.0038
vn 0.9982 -0.0000 0.0601
vn 0.9986 -0.0000 0.0537
vn 0.9996 0.0000 -0.0289
vn 0.9942 0.0000 -0.1075
vn 0.9999 -0.0000 0.0159
vn 0.9914 0.0000 0.1310
vn 0.9997 -0.0000 0.0254
vn 0.9987 0.0000 -0.0501
vn 0.9991 -0.0000 0.0415
vn 1.0000 0.0000 0.0000
vn 0.9952 0.0000 0.0980
vn 0.7071 0.0000 0.7071
vn 0.0992 -0.6038 0.7909
vn 0.1095 -0.6043 0.7892
vn -0.0000 -0.6019 0.7986
vn 0.1963 -0.6094 0.7682
vn 0.2145 -0.6109 0.7621
vn 0.2889 -0.6179 0.7313
vn 0.3117 -0.6204 0.7197
vn 0.3750 -0.6282 0.6817
vn 0.3991 -0.6315 0.6647
vn 0.4527 -0.6394 0.6215
vn 0.4759 -0.6431 0.5999
vn 0.5211 -0.6507 0.5524
vn 0.5418 -0.6544 0.5275
vn 0.5794 -0.6615 0.4763
vn 0.5967 -0.6650 0.4492
vn 0.6271 -0.6715 0.3947
vn 0.6407 -0.6747 0.3665
vn 0.6641 -0.6807 0.3092
vn 0.6738 -0.6835 0.2807
vn 0.6903 -0.6890 0.2210
vn 0.6962 -0.6914 0.1930
vn 0.7055 -0.6964 0.1314
vn 0.7080 -0.6985 0.1046
vn 0.7099 -0.7030 0.0417
vn 0.7092 -0.7048 0.0165
vn 0.7036 -0.7090 -0.0471
vn 0.7002 -0.7105 -0.0701
vn 0.6869 -0.7144 -0.1336
vn 0.6813 -0.7156 -0.1542
vn 0.6601 -0.7192 -0.2168
vn 0.6528 -0.7203 -0.2348
vn 0.6236 -0.7238 -0.2954
vn 0.6151 -0.7246 -0.3107
vn 0.5781 -0.7281 -0.3684
vn 0.5689 -0.7288 -0.3809
vn 0.5243 -0.7323 -0.4346
vn 0.5149 -0.7330 -0.4445
vn 0.4630 -0.7366 -0.4930
vn 0.4540 -0.7372 -0.5004
vn 0.3953 -0.7412 -0.5426
vn 0.3870 -0.7418 -0.5477
vn 0.3221 -0.7461 -0.5827
vn 0.3151 -0.7466 -0.5860
vn 0.2384 -0.7208 -0.6508
vn 0.2624 -0.7366 -0.6233
vn 0.1757 -0.7078 -0.6842
vn 0.0885 -0.7078 -0.7008
vn -0.0000 -0.7078 -0.7064
vn -0.0885 -0.7078 -0.7008
vn -0.1757 -0.7078 -0.6842
vn -0.2384 -0.7208 -0.6508
vn -0.2624 -0.7366 -0.6233
vn -0.3221 -0.7461 -0.5827
vn -0.3151 -0.7466 -0.5860
vn -0.3953 -0.7412 -0.5426
vn -0.3870 -0.7418 -0.5477
vn -0.4630 -0.7366 -0.4930
vn -0.4540 -0.7372 -0.5004
vn -0.5243 -0.7323 -0.4346
vn -0.5149 -0.7330 -0.4445
vn -0.5781 -0.7281 -0.3684
vn -0.5689 -0.7288 -0.3809
vn -0.6236 -0.7238 -0.2954
vn -0.6151 -0.7246 -0.3107
vn -0.6601 -0.7192 -0.2168
vn -0.6528 -0.7203 -0.2348
vn -0.6869 -0.7144 -0.1336
vn -0.6813 -0.7156 -0.1542
vn -0.7036 -0.7090 -0.0471
vn -0.7002 -0.7105 -0.0701
vn -0.7099 -0.7030 0.0417
vn -0.7092 -0.7048 0.0165
vn -0.7055 -0.6964 0.1314
vn -0.7080 -0.6985 0.1046
vn -0.6903 -0.6890 0.2210
vn -0.6962 -0.6914 0.1930
vn -0.6641 -0.6807 0.3092
vn -0.6738 -0.6835 0.2807
vn -0.6271 -0.6715 0.3947
vn -0.6407 -0.6747 0.3665
vn -0.5794 -0.6615 0.4763
vn -0.5967 -0.6650 0.4492
vn -0.5211 -0.6507 0.5524
vn -0.5418 -0.6544 0.5275
vn -0.4527 -0.6394 0.6215
vn -0.4759 -0.6431 0.5999
vn -0.3750 -0.6282 0.6817
vn -0.3991 -0.6315 0.6647
vn -0.2889 -0.6179 0.7313
vn -0.3117 -0.6204 0.7197
vn -0.1963 -0.6094 0.7682
vn -0.2145 -0.6109 0.7621
vn -0.0992 -0.6038 0.7909
vn -0.1095 -0.6043 0.7892
vn 0.1095 0.6043 0.7892
vn 0.0992 0.6038 0.7909
vn -0.0000 0.6019 0.7986
vn 0.2145 0.6109 0.7621
vn 0.1963 0.6094 0.7682
vn 0.3117 0.6204 0.7197
vn 0.2889 0.6179 0.7313
vn 0.3991 0.6315 0.6647
vn 0.3750 0.6282 0.6817
vn 0.4759 0.6431 0.5999
vn 0.4527 0.6394 0.6215
vn 0.5418 0.6544 0.5275
vn 0.5211 0.6507 0.5524
vn 0.5967 0.6650 0.4492
vn 0.5794 0.6615 0.4763
vn 0.6407 0.6747 0.3665
vn 0.6271 0.6715 0.3947
vn 0.6738 0.6835 0.2807
vn 0.6641 0.6807 0.3092
vn 0.6962 0.6914 0.1930
vn 0.6903 0.6890 0.2210
vn 0.7080 0.6985 0.1046
vn 0.7055 0.6964 0.1314
vn 0.7092 0.7048 0.0165
vn 0.7099 0.7030 0.0417
vn 0.7002 0.7105 -0.0701
vn 0.7036 0.7090 -0.0471
vn 0.6813 0.7156 -0.1542
vn 0.6869 0.7144 -0.1336
vn 0.6528 0.7203 -0.2348
vn 0.6601 0.7192 -0.2168
vn 0.6151 0.7246 -0.3107
vn 0.6236 0.7238 -0.2954
vn 0.5689 0.7288 -0.3809
vn 0.5781 0.7281 -0.3684
vn 0.5149 0.7330 -0.4445
vn 0.5243 0.7323 -0.4346
vn 0.4540 0.7372 -0.5004
vn 0.4630 0.7366 -0.4930
vn 0.3870 0.7418 -0.5477
vn 0.3953 0.7412 -0.5426
vn 0.3151 0.7466 -0.5860
vn 0.3221 0.7461 -0.5827
vn 0.2624 0.7366 -0.6233
vn 0.2384 0.7208 -0.6508
vn 0.1757 0.7078 -0.6842
vn 0.0885 0.7078 -0.7008
vn -0.0000 0.7078 -0.7064
vn -0.0885 0.7078 -0.7008
vn -0.1757 0.7078 -0.6842
vn -0.2624 0.7366 -0.6233
vn -0.2384 0.7208 -0.6508
vn -0.3151 0.7466 -0.5860
vn -0.3221 0.7461 -0.5827
vn -0.3870 0.7418 -0.5477
vn -0.3953 0.7412 -0.5426
vn -0.4540 0.7372 -0.5004
vn -0.4630 0.7366 -0.4930
vn -0.5149 0.7330 -0.4445
vn -0.5243 0.7323 -0.4346
vn -0.5689 0.7288 -0.3809
vn -0.5781 0.7281 -0.3684
vn -0.6151 0.7246 -0.3107
vn -0.6236 0.7238 -0.2954
vn -0.6528 0.7203 -0.2348
vn -0.6601 0.7192 -0.2168
vn -0.6813 0.7156 -0.1542
vn -0.6869 0.7144 -0.1336
vn -0.7002 0.7105 -0.0701
vn -0.7036 0.7090 -0.0471
vn -0.7092 0.7048 0.0165
vn -0.7099 0.7030 0.0417
vn -0.7080 0.6985 0.1046
vn -0.7055 0.6964 0.1314
vn -0.6962 0.6914 0.1930
vn -0.6903 0.6890 0.2210
vn -0.6738 0.6835 0.2807
vn -0.6641 0.6807 0.3092
vn -0.6407 0.6747 0.3665
vn -0.6271 0.6715 0.3947
vn -0.5967 0.6650 0.4492
vn -0.5794 0.6615 0.4763
vn -0.5418 0.6544 0.5275
vn -0.5211 0.6507 0.5524
vn -0.4759 0.6431 0.5999
vn -0.4527 0.6394 0.6215
vn -0.3991 0.6315 0.6647
vn -0.3750 0.6282 0.6817
vn -0.3117 0.6204 0.7197
vn -0.2889 0.6179 0.7313
vn -0.2145 0.6109 0.7621
vn -0.1963 0.6094 0.7682
vn -0.1095 0.6043 0.7892
vn -0.0992 0.6038 0.7909
usemtl Key
s 1
f 234/1/1 333/2/1 335/3/2 236/4/2
f 288/5/3 387/6/3 389/7/4 290/8/4
f 208/9/5 307/10/5 309/11/6 210/12/6
f 262/13/7 361/14/7 363/15/8 264/16/8
f 236/4/2 335/3/2 337/17/9 238/18/9
f 290/8/4 389/7/4 391/19/10 292/20/10
f 210/12/6 309/11/6 311/21/11 212/22/11
f 264/16/8 363/15/8 365/23/12 266/24/12
f 238/18/9 337/17/9 339/25/13 240/26/13
f 292/27/10 391/28/10 393/29/14 294/30/14
f 212/22/11 311/21/11 313/31/15 214/32/15
f 266/33/12 365/34/12 367/35/16 268/36/16
f 47/37/17 298/38/17 295/39/17 46/40/17
f 214/32/15 313/31/15 315/41/18 216/42/18
f 268/36/16 367/35/16 369/43/19 270/44/19
f 2/45/20 1/46/20 196/47/20 197/48/20
f 216/49/18 315/50/18 317/51/21 218/52/21
f 270/44/19 369/43/19 371/53/22 272/54/22
f 218/52/21 317/51/21 319/55/23 220/56/23
f 272/54/22 371/53/22 373/57/24 274/58/24
f 220/56/23 319/55/23 321/59/25 222/60/25
f 274/58/24 373/57/24 375/61/26 276/62/26
f 222/60/25 321/59/25 323/63/27 224/64/27
f 276/62/26 375/61/26 377/65/28 278/66/28
f 224/64/27 323/63/27 325/67/29 226/68/29
f 278/66/28 377/65/28 379/69/30 280/70/30
f 294/30/14 393/29/14 296/71/31 195/72/31
f 226/68/29 325/67/29 327/73/32 228/74/32
f 280/70/30 379/69/30 381/75/33 282/76/33
f 200/77/34 299/78/34 301/79/35 202/80/35
f 228/74/32 327/73/32 329/81/36 230/82/36
f 282/76/33 381/75/33 383/83/37 284/84/37
f 202/80/35 301/79/35 303/85/38 204/86/38
f 256/87/39 355/88/39 357/89/40 258/90/40
f 230/82/36 329/81/36 331/91/41 232/92/41
f 284/84/37 383/83/37 385/93/42 286/94/42
f 204/86/38 303/85/38 305/95/43 206/96/43
f 258/90/40 357/89/40 359/97/44 260/98/44
f 232/92/41 331/91/41 333/2/1 234/1/1
f 286/94/42 385/93/42 387/6/3 288/5/3
f 206/96/43 305/95/43 307/10/5 208/9/5
f 260/98/44 359/97/44 361/14/7 262/13/7
f 240/99/13 339/100/13 341/101/45 242/102/45
f 66/103/17 336/104/17 334/105/17 65/106/17
f 86/107/17 390/108/17 388/109/17 85/110/17
f 53/111/17 310/112/17 308/113/17 52/114/17
f 73/115/17 364/116/17 362/117/17 72/118/17
f 67/119/17 338/120/17 336/104/17 66/103/17
f 87/121/17 392/122/17 390/108/17 86/107/17
f 54/123/17 312/124/17 310/112/17 53/111/17
f 74/125/17 366/126/17 364/116/17 73/115/17
f 338/120/17 67/119/17 89/127/17 90/128/17 68/129/17 354/130/17 352/131/17 350/132/17 348/133/17 346/134/17 344/135/17 342/136/17 340/137/17
f 88/138/17 394/139/17 392/122/17 87/121/17
f 55/140/17 314/141/17 312/124/17 54/123/17
f 75/142/17 368/143/17 366/126/17 74/125/17
f 56/144/17 316/145/17 314/141/17 55/140/17
f 76/146/17 370/147/17 368/143/17 75/142/17
f 48/148/17 300/149/17 298/38/17 47/37/17
f 57/150/17 318/151/17 316/145/17 56/144/17
f 77/152/17 372/153/17 370/147/17 76/146/17
f 58/154/17 320/155/17 318/151/17 57/150/17
f 78/156/17 374/157/17 372/153/17 77/152/17
f 59/158/17 322/159/17 320/155/17 58/154/17
f 79/160/17 376/161/17 374/157/17 78/156/17
f 60/162/17 324/163/17 322/159/17 59/158/17
f 80/164/17 378/165/17 376/161/17 79/160/17
f 61/166/17 326/167/17 324/163/17 60/162/17
f 81/168/17 380/169/17 378/165/17 80/164/17
f 46/40/17 295/39/17 394/139/17 88/138/17
f 62/170/17 328/171/17 326/167/17 61/166/17
f 82/172/17 382/173/17 380/169/17 81/168/17
f 49/174/17 302/175/17 300/149/17 48/148/17
f 63/176/17 330/177/17 328/171/17 62/170/17
f 83/178/17 384/179/17 382/173/17 82/172/17
f 50/180/17 304/181/17 302/175/17 49/174/17
f 70/182/17 358/183/17 356/184/17 69/185/17
f 64/186/17 332/187/17 330/177/17 63/176/17
f 84/188/17 386/189/17 384/179/17 83/178/17
f 51/190/17 306/191/17 304/181/17 50/180/17
f 71/192/17 360/193/17 358/183/17 70/182/17
f 65/106/17 334/105/17 332/187/17 64/186/17
f 85/110/17 388/109/17 386/189/17 84/188/17
f 52/114/17 308/113/17 306/191/17 51/190/17
f 72/118/17 362/117/17 360/193/17 71/192/17
f 69/185/17 356/184/17 354/130/17 68/129/17
f 29/194/20 28/195/20 263/196/20 265/197/20
f 28/198/15 73/199/15 72/200/11 27/201/11
f 30/202/20 29/194/20 265/197/20 267/203/20
f 29/204/18 74/205/18 73/199/15 28/198/15
f 31/206/20 30/202/20 267/203/20 269/207/20
f 30/208/21 75/209/21 74/210/18 29/211/18
f 32/212/20 31/206/20 269/207/20 271/213/20
f 31/214/23 76/215/23 75/209/21 30/208/21
f 33/216/20 32/212/20 271/213/20 273/217/20
f 32/218/25 77/219/25 76/215/23 31/214/23
f 34/220/20 33/216/20 273/217/20 275/221/20
f 33/222/27 78/223/27 77/219/25 32/218/25
f 35/224/20 34/220/20 275/221/20 277/225/20
f 34/226/29 79/227/29 78/223/27 33/222/27
f 36/228/20 35/224/20 277/225/20 279/229/20
f 35/230/32 80/231/32 79/227/29 34/226/29
f 91/232/46 97/233/46 104/234/47 102/235/47
f 37/236/20 36/228/20 279/229/20 281/237/20
f 36/238/36 81/239/36 80/231/32 35/230/32
f 101/240/48 105/241/48 89/242/49 44/243/49
f 38/244/20 37/236/20 281/237/20 283/245/20
f 37/246/41 82/247/41 81/239/36 36/238/36
f 185/248/50 191/249/50 149/250/51 111/251/51
f 39/252/20 38/244/20 283/245/20 285/253/20
f 38/254/1 83/255/1 82/247/41 37/246/41
f 40/256/20 39/252/20 285/253/20 287/257/20
f 39/258/2 84/259/2 83/255/1 38/254/1
f 23/260/52 68/261/52 90/262/53 45/263/53
f 41/264/20 40/256/20 287/257/20 289/265/20
f 40/266/9 85/267/9 84/259/2 39/258/2
f 110/268/54 150/269/54 155/270/55 117/271/55
f 42/272/20 41/264/20 289/265/20 291/273/20
f 41/274/13 86/275/13 85/267/9 40/266/9
f 113/276/56 153/277/56 158/278/57 120/279/57
f 43/280/20 42/272/20 291/273/20 293/281/20
f 42/282/45 87/283/45 86/284/13 41/285/13
f 44/243/58 89/242/58 67/286/59 22/287/59
f 198/288/60 297/289/60 299/78/34 200/77/34
f 43/290/61 88/291/61 87/283/45 42/282/45
f 1/292/62 46/293/62 88/291/61 43/290/61
f 116/294/63 156/295/63 152/296/64 114/297/64
f 1/46/20 43/280/20 293/281/20 196/47/20
f 119/298/65 159/299/65 161/300/66 123/301/66
f 3/302/20 2/45/20 197/48/20 199/303/20
f 122/304/67 162/305/67 164/306/68 126/307/68
f 4/308/20 3/302/20 199/303/20 201/309/20
f 125/310/69 165/311/69 167/312/70 129/313/70
f 5/314/20 4/308/20 201/309/20 203/315/20
f 128/316/71 168/317/71 170/318/72 132/319/72
f 6/320/20 5/314/20 203/315/20 205/321/20
f 131/322/73 171/323/73 173/324/74 135/325/74
f 7/326/20 6/320/20 205/321/20 207/327/20
f 134/328/75 174/329/75 176/330/76 138/331/76
f 8/332/20 7/326/20 207/327/20 209/333/20
f 137/334/77 177/335/77 179/336/78 141/337/78
f 9/338/20 8/332/20 209/333/20 211/339/20
f 140/340/79 180/341/79 182/342/80 144/343/80
f 10/344/20 9/338/20 211/339/20 213/345/20
f 11/346/20 10/344/20 213/345/20 215/347/20
f 107/348/81 147/349/81 96/350/82 92/351/82
f 2/352/83 47/353/83 46/293/62 1/292/62
f 12/354/20 11/346/20 215/347/20 217/355/20
f 3/356/84 48/357/84 47/353/83 2/352/83
f 13/358/20 12/354/20 217/355/20 219/359/20
f 4/360/85 49/361/85 48/357/84 3/356/84
f 14/362/20 13/358/20 219/359/20 221/363/20
f 5/364/86 50/365/86 49/361/85 4/360/85
f 15/366/20 14/362/20 221/363/20 223/367/20
f 6/368/39 51/369/39 50/365/86 5/364/86
f 16/370/20 15/366/20 223/367/20 225/371/20
f 7/372/40 52/373/40 51/369/39 6/368/39
f 17/374/20 16/370/20 225/371/20 227/375/20
f 8/376/44 53/377/44 52/373/40 7/372/40
f 18/378/20 17/374/20 227/375/20 229/379/20
f 9/380/7 54/381/7 53/377/44 8/376/44
f 19/382/20 18/378/20 229/379/20 231/383/20
f 10/384/8 55/385/8 54/381/7 9/380/7
f 20/386/20 19/382/20 231/383/20 233/387/20
f 11/388/12 56/389/12 55/385/8 10/384/8
f 21/390/20 20/386/20 233/387/20 235/391/20
f 12/392/16 57/393/16 56/394/12 11/395/12
f 22/396/20 21/390/20 235/391/20 237/397/20
f 13/398/19 58/399/19 57/393/16 12/392/16
f 237/397/20 239/400/20 241/401/20 243/402/20 245/403/20 247/404/20 249/405/20 251/406/20 253/407/20 23/408/20 45/409/20 44/410/20 22/396/20
f 14/411/22 59/412/22 58/399/19 13/398/19
f 242/102/45 341/101/45 343/413/61 244/414/61
f 15/415/24 60/416/24 59/412/22 14/411/22
f 244/414/61 343/413/61 345/417/62 246/418/62
f 16/419/26 61/420/26 60/416/24 15/415/24
f 246/418/62 345/417/62 347/421/83 248/422/83
f 17/423/28 62/424/28 61/420/26 16/419/26
f 248/422/83 347/421/83 349/425/84 250/426/84
f 18/427/30 63/428/30 62/424/28 17/423/28
f 250/426/84 349/425/84 351/429/85 252/430/85
f 19/431/33 64/432/33 63/428/30 18/427/30
f 252/430/85 351/429/85 353/433/86 254/434/86
f 20/435/37 65/436/37 64/432/33 19/431/33
f 254/434/86 353/433/86 355/88/39 256/87/39
f 21/437/42 66/438/42 65/436/37 20/435/37
f 24/439/20 23/408/20 253/407/20 255/440/20
f 22/287/59 67/286/59 66/438/42 21/437/42
f 25/441/20 24/439/20 255/440/20 257/442/20
f 24/443/43 69/444/43 68/261/52 23/260/52
f 26/445/20 25/441/20 257/442/20 259/446/20
f 25/447/5 70/448/5 69/444/43 24/443/43
f 27/449/20 26/445/20 259/446/20 261/450/20
f 26/451/6 71/452/6 70/448/5 25/447/5
f 28/195/20 27/449/20 261/450/20 263/196/20
f 27/201/11 72/200/11 71/452/6 26/451/6
f 91/232/46 93/453/87 100/454/87 97/233/46
f 93/455/87 94/456/88 99/457/88 100/458/87
f 94/456/88 95/459/89 98/460/89 99/457/88
f 95/459/89 92/351/82 96/350/82 98/460/89
f 89/127/17 105/461/17 106/462/17 104/463/17 97/464/17 100/465/17 99/466/17 98/467/17 96/468/17 147/469/17 148/470/17 146/471/17 183/472/17 184/473/17 182/474/17 180/475/17 181/476/17 179/477/17 177/478/17 178/479/17 176/480/17 174/481/17 175/482/17 173/483/17 171/484/17 172/485/17 170/486/17 168/487/17 169/488/17 167/489/17 165/490/17 166/491/17 164/492/17 162/493/17 163/494/17 161/495/17 159/496/17 160/497/17 158/498/17 153/499/17 154/500/17 152/501/17 156/502/17 157/503/17 155/504/17 150/505/17 151/506/17 149/507/17 191/508/17 194/509/17 193/510/17 192/511/17 190/512/17 90/128/17
f 104/234/47 106/513/90 103/514/90 102/235/47
f 106/513/90 105/241/48 101/240/48 103/514/90
f 143/515/91 183/516/91 146/517/92 108/518/92
f 146/517/92 148/519/93 109/520/93 108/518/92
f 148/521/93 147/349/81 107/348/81 109/522/93
f 110/523/54 112/524/94 151/525/94 150/526/54
f 112/524/95 111/251/51 149/250/51 151/525/95
f 116/294/63 118/527/96 157/528/96 156/295/63
f 118/527/96 117/271/55 155/270/55 157/528/96
f 119/298/65 121/529/97 160/530/97 159/299/65
f 121/529/97 120/531/57 158/532/57 160/530/97
f 152/296/64 154/533/98 115/534/98 114/297/64
f 154/533/98 153/535/56 113/536/56 115/534/98
f 122/537/67 124/538/99 163/539/99 162/540/67
f 124/538/99 123/301/66 161/300/66 163/539/99
f 125/310/69 127/541/100 166/542/100 165/311/69
f 127/541/100 126/543/68 164/544/68 166/542/100
f 128/545/71 130/546/101 169/547/101 168/548/71
f 130/546/101 129/313/70 167/312/70 169/547/101
f 131/322/73 133/549/102 172/550/102 171/323/73
f 133/549/102 132/551/72 170/552/72 172/550/102
f 134/328/75 136/553/103 175/554/103 174/329/75
f 136/555/103 135/325/74 173/324/74 175/556/103
f 137/334/77 139/557/104 178/558/104 177/335/77
f 139/557/104 138/559/76 176/560/76 178/558/104
f 140/561/79 142/562/105 181/563/105 180/564/79
f 142/562/105 141/337/78 179/336/78 181/563/105
f 143/515/91 145/565/106 184/566/106 183/516/91
f 145/565/106 144/567/80 182/568/80 184/566/106
f 45/569/107 90/570/107 190/571/108 186/572/108
f 185/248/50 187/573/95 194/574/95 191/249/50
f 187/573/95 188/575/109 193/576/109 194/574/95
f 188/575/109 189/577/94 192/578/94 193/576/109
f 189/579/94 186/572/108 190/571/108 192/580/94
f 44/410/20 45/409/20 186/581/20 189/582/20 188/583/20 187/584/20 185/585/20 111/586/20 112/587/20 110/588/20 117/589/20 118/590/20 116/591/20 114/592/20 115/593/20 113/594/20 120/595/20 121/596/20 119/597/20 123/598/20 124/599/20 122/600/20 126/601/20 127/602/20 125/603/20 129/604/20 130/605/20 128/606/20 132/607/20 133/608/20 131/609/20 135/610/20 136/611/20 134/612/20 138/613/20 139/614/20 137/615/20 141/616/20 142/617/20 140/618/20 144/619/20 145/620/20 143/621/20 108/622/20 109/623/20 107/624/20 92/625/20 95/626/20 94/627/20 93/628/20 91/629/20 102/630/20 103/631/20 101/632/20
f 198/288/110 197/633/111 196/634/112 195/72/112
f 200/77/113 199/635/114 197/633/111 198/288/110
f 202/80/115 201/636/116 199/635/114 200/77/113
f 204/86/117 203/637/118 201/636/116 202/80/115
f 206/96/119 205/638/120 203/637/118 204/86/117
f 208/9/121 207/639/122 205/638/120 206/96/119
f 210/12/123 209/640/124 207/639/122 208/9/121
f 212/22/125 211/641/126 209/640/124 210/12/123
f 214/642/127 213/345/128 211/339/126 212/643/125
f 216/644/129 215/347/130 213/345/128 214/642/127
f 218/645/131 217/355/132 215/347/130 216/644/129
f 220/646/133 219/359/134 217/355/132 218/645/131
f 222/647/135 221/363/136 219/359/134 220/646/133
f 224/648/137 223/367/138 221/363/136 222/647/135
f 226/649/139 225/371/140 223/367/138 224/648/137
f 228/650/141 227/375/142 225/371/140 226/649/139
f 230/651/143 229/379/144 227/375/142 228/650/141
f 232/652/145 231/383/146 229/379/144 230/651/143
f 234/653/147 233/387/148 231/383/146 232/652/145
f 236/654/149 235/391/150 233/387/148 234/653/147
f 238/655/151 237/397/152 235/391/150 236/654/149
f 240/656/153 239/400/154 237/397/152 238/655/151
f 242/657/155 241/401/155 239/400/154 240/656/153
f 244/658/156 243/402/156 241/401/155 242/657/155
f 246/659/157 245/403/157 243/402/156 244/658/156
f 248/660/158 247/404/158 245/403/157 246/659/157
f 250/661/159 249/405/159 247/404/158 248/660/158
f 252/662/160 251/406/161 249/405/159 250/661/159
f 254/663/162 253/407/163 251/406/161 252/662/160
f 256/664/164 255/440/165 253/407/163 254/663/162
f 258/665/166 257/442/167 255/440/165 256/664/164
f 260/666/168 259/446/169 257/442/167 258/665/166
f 262/667/170 261/450/171 259/446/169 260/666/168
f 264/668/172 263/196/173 261/450/171 262/667/170
f 266/669/174 265/197/175 263/196/173 264/668/172
f 268/670/176 267/203/177 265/197/175 266/669/174
f 270/671/178 269/207/179 267/203/177 268/670/176
f 272/672/180 271/213/181 269/207/179 270/671/178
f 274/673/182 273/217/183 271/213/181 272/672/180
f 276/674/184 275/221/185 273/217/183 274/673/182
f 278/66/186 277/675/187 275/676/185 276/62/184
f 280/70/188 279/677/189 277/675/187 278/66/186
f 282/76/190 281/678/191 279/677/189 280/70/188
f 284/84/192 283/679/193 281/678/191 282/76/190
f 286/94/194 285/680/195 283/679/193 284/84/192
f 288/5/196 287/681/197 285/680/195 286/94/194
f 290/8/198 289/682/199 287/681/197 288/5/196
f 292/683/200 291/273/201 289/265/199 290/684/198
f 294/685/202 293/281/203 291/273/201 292/683/200
f 195/72/112 196/634/112 293/686/203 294/30/202
f 298/687/204 297/289/205 296/71/206 295/688/206
f 300/689/207 299/78/208 297/289/205 298/687/204
f 302/690/209 301/79/210 299/78/208 300/689/207
f 304/691/211 303/85/212 301/79/210 302/690/209
f 306/692/213 305/95/214 303/85/212 304/691/211
f 308/693/215 307/10/216 305/95/214 306/692/213
f 310/694/217 309/11/218 307/10/216 308/693/215
f 312/695/219 311/21/220 309/11/218 310/694/217
f 314/141/221 313/696/222 311/697/220 312/124/219
f 316/145/223 315/698/224 313/696/222 314/141/221
f 318/151/225 317/699/226 315/698/224 316/145/223
f 320/155/227 319/700/228 317/699/226 318/151/225
f 322/159/229 321/701/230 319/700/228 320/155/227
f 324/163/231 323/702/232 321/701/230 322/159/229
f 326/167/233 325/703/234 323/702/232 324/163/231
f 328/171/235 327/704/236 325/703/234 326/167/233
f 330/177/237 329/705/238 327/704/236 328/171/235
f 332/187/239 331/706/240 329/705/238 330/177/237
f 334/105/241 333/707/242 331/706/240 332/187/239
f 336/104/243 335/708/244 333/707/242 334/105/241
f 338/120/245 337/709/246 335/708/244 336/104/243
f 340/137/247 339/710/248 337/709/246 338/120/245
f 342/136/249 341/711/249 339/710/248 340/137/247
f 344/135/250 343/712/250 341/711/249 342/136/249
f 346/134/251 345/713/251 343/712/250 344/135/250
f 348/133/252 347/714/252 345/713/251 346/134/251
f 350/132/253 349/715/253 347/714/252 348/133/252
f 352/131/254 351/716/255 349/715/253 350/132/253
f 354/130/256 353/717/257 351/716/255 352/131/254
f 356/184/258 355/718/259 353/717/257 354/130/256
f 358/183/260 357/719/261 355/718/259 356/184/258
f 360/193/262 359/720/263 357/719/261 358/183/260
f 362/117/264 361/721/265 359/720/263 360/193/262
f 364/116/266 363/722/267 361/721/265 362/117/264
f 366/126/268 365/723/269 363/722/267 364/116/266
f 368/143/270 367/724/271 365/723/269 366/126/268
f 370/147/272 369/725/273 367/724/271 368/143/270
f 372/153/274 371/726/275 369/725/273 370/147/272
f 374/157/276 373/727/277 371/726/275 372/153/274
f 376/161/278 375/728/279 373/727/277 374/157/276
f 378/729/280 377/65/281 375/61/279 376/730/278
f 380/731/282 379/69/283 377/65/281 378/729/280
f 382/732/284 381/75/285 379/69/283 380/731/282
f 384/733/286 383/83/287 381/75/285 382/732/284
f 386/734/288 385/93/289 383/83/287 384/733/286
f 388/735/290 387/6/291 385/93/289 386/734/288
f 390/736/292 389/7/293 387/6/291 388/735/290
f 392/122/294 391/737/295 389/738/293 390/108/292
f 394/139/296 393/739/297 391/737/295 392/122/294
f 295/688/206 296/71/206 393/29/297 394/740/296
f 195/72/31 296/71/31 297/289/60 198/288/60
